PathFileType	3	(X/Y/Z)	running_1__view1_aligned.trc
DataRate	CameraRate	NumFrames	NumMarkers	Units	OrigDataRate	OrigDataStartFrame	OrigNumFrames
100.0	100.0	12	19	mm	100.0	1024	6401
Frame#	Time	pelvis			neck			head			hip_left			hip_right			knee_left			knee_right			ankle_left			ankle_right			heel_left			heel_right			toe_left			toe_right			shoulder_left			shoulder_right			elbow_left			elbow_right			wrist_left			wrist_right			
		X1	Y1	Z1	X2	Y2	Z2	X3	Y3	Z3	X4	Y4	Z4	X5	Y5	Z5	X6	Y6	Z6	X7	Y7	Z7	X8	Y8	Z8	X9	Y9	Z9	X10	Y10	Z10	X11	Y11	Z11	X12	Y12	Z12	X13	Y13	Z13	X14	Y14	Z14	X15	Y15	Z15	X16	Y16	Z16	X17	Y17	Z17	X18	Y18	Z18	X19	Y19	Z19	
1024	10.23000	1.114517	930.005185	154.841938	-26.733508	1456.939985	307.868581	8.061929	1525.892668	456.007925	78.440364	932.702764	154.686396	-76.211672	927.307552	154.997797	89.413749	533.816741	372.283677	-148.569162	500.085914	215.117692	73.371814	176.929788	241.250437	-192.406542	225.653357	-99.003835	71.646123	137.888328	203.204923	-190.552562	218.021707	-155.679206	59.181025	109.703429	395.128696	-199.818251	55.172555	-31.190258	132.346480	1460.021265	246.300110	-195.876345	1391.434354	283.611328	192.356872	1252.525858	90.236446	-255.797940	1125.793748	230.929304	152.739217	1075.900677	235.085384	-167.512734	1046.120156	437.860831
1025	10.24000	2.162375	930.572127	154.653184	-25.095972	1457.531422	307.796495	9.382791	1526.683931	455.924620	79.458040	933.272851	154.646656	-75.133600	927.871354	154.659996	88.933056	534.118075	368.668824	-147.349917	501.519212	216.962734	73.822859	173.563806	240.813200	-191.777943	228.220271	-96.393163	72.250108	133.491363	202.842514	-189.871101	220.772854	-152.851824	60.361416	108.185572	398.530370	-200.038754	58.190277	-29.430829	134.275585	1460.060659	246.975520	-194.283549	1392.769858	282.771736	192.956253	1250.348499	94.561148	-254.864358	1128.100703	228.598151	151.200465	1077.883164	240.922854	-167.890955	1046.595003	434.186458
1026	10.25000	3.210232	931.139069	154.464429	-23.458436	1458.122858	307.724408	10.703653	1527.475194	455.841315	80.475717	933.842937	154.606916	-74.055527	928.435157	154.322196	88.452363	534.419410	365.053971	-146.130672	502.952510	218.807776	74.273905	170.197825	240.375964	-191.149344	230.787184	-93.782491	72.854093	129.094399	202.480105	-189.189640	223.524002	-150.024442	61.541808	106.667715	401.932044	-200.259257	61.207999	-27.671399	136.204689	1460.100052	247.650929	-192.690754	1394.105363	281.932145	193.555634	1248.171140	98.885850	-253.930775	1130.407659	226.266997	149.661713	1079.865651	246.760324	-168.269177	1047.069849	430.512084
1027	10.26000	4.258090	931.706011	154.275675	-21.820901	1458.714294	307.652322	12.024514	1528.266457	455.758010	81.493394	934.413024	154.567176	-72.977455	928.998960	153.984395	87.971669	534.720744	361.439118	-144.911427	504.385808	220.652818	74.724950	166.831843	239.938727	-190.520746	233.354098	-91.171819	73.458077	124.697435	202.117696	-188.508180	226.275150	-147.197061	62.722200	105.149857	405.333718	-200.479759	64.225721	-25.911969	138.133794	1460.139446	248.326339	-191.097958	1395.440868	281.092554	194.155016	1245.993781	103.210552	-252.997193	1132.714614	223.935843	148.122961	1081.848138	252.597794	-168.647398	1047.544696	426.837710
1028	10.27000	5.305947	932.272953	154.086920	-20.183365	1459.305731	307.580235	13.345376	1529.057720	455.674704	82.511071	934.983111	154.527435	-71.899382	929.562763	153.646595	87.490976	535.022078	357.824265	-143.692181	505.819106	222.497861	75.175996	163.465861	239.501490	-189.892147	235.921011	-88.561147	74.062062	120.300471	201.755287	-187.826719	229.026297	-144.369679	63.902591	103.632000	408.735392	-200.700262	67.243443	-24.152540	140.062899	1460.178839	249.001749	-189.505163	1396.776372	280.252963	194.754397	1243.816422	107.535255	-252.063610	1135.021570	221.604690	146.584210	1083.830625	258.435265	-169.025620	1048.019543	423.163336
1029	10.28000	6.353805	932.839895	153.898166	-18.545830	1459.897167	307.508149	14.666237	1529.848983	455.591399	83.528748	935.553197	154.487695	-70.821310	930.126566	153.308794	87.010283	535.323413	354.209412	-142.472936	507.252404	224.342903	75.627041	160.099879	239.064253	-189.263548	238.487924	-85.950475	74.666047	115.903506	201.392878	-187.145258	231.777445	-141.542297	65.082983	102.114143	412.137066	-200.920764	70.261165	-22.393110	141.992004	1460.218232	249.677158	-187.912368	1398.111877	279.413371	195.353779	1241.639063	111.859957	-251.130028	1137.328525	219.273536	145.045458	1085.813112	264.272735	-169.403841	1048.494389	419.488963
1030	10.29000	7.401662	933.406837	153.709411	-16.908294	1460.488603	307.436062	15.987099	1530.640246	455.508094	84.546425	936.123284	154.447955	-69.743237	930.690369	152.970994	86.529590	535.624747	350.594559	-141.253691	508.685702	226.187945	76.078087	156.733898	238.627016	-188.634949	241.054838	-83.339803	75.270032	111.506542	201.030469	-186.463797	234.528592	-138.714915	66.263374	100.596286	415.538740	-201.141267	73.278887	-20.633680	143.921108	1460.257626	250.352568	-186.319572	1399.447382	278.573780	195.953160	1239.461704	116.184659	-250.196445	1139.635481	216.942382	143.506706	1087.795599	270.110205	-169.782063	1048.969236	415.814589
1031	10.30000	8.449520	933.973779	153.520657	-15.270759	1461.080039	307.363976	17.307960	1531.431509	455.424789	85.564101	936.693371	154.408215	-68.665165	931.254172	152.633193	86.048897	535.926081	346.979706	-140.034445	510.119000	228.032987	76.529132	153.367916	238.189780	-188.006350	243.621751	-80.729132	75.874016	107.109578	200.668060	-185.782336	237.279740	-135.887534	67.443766	99.078429	418.940414	-201.361769	76.296610	-18.874251	145.850213	1460.297019	251.027978	-184.726777	1400.782886	277.734189	196.552541	1237.284346	120.509361	-249.262863	1141.942436	214.611229	141.967954	1089.778086	275.947675	-170.160284	1049.444082	412.140215
1032	10.31000	9.497377	934.540721	153.331902	-13.633223	1461.671476	307.291889	18.628822	1532.222772	455.341484	86.581778	937.263457	154.368474	-67.587093	931.817975	152.295393	85.568204	536.227415	343.364853	-138.815200	511.552298	229.878029	76.980178	150.001934	237.752543	-187.377752	246.188665	-78.118460	76.478001	102.712614	200.305651	-185.100875	240.030887	-133.060152	68.624158	97.560572	422.342088	-201.582272	79.314332	-17.114821	147.779318	1460.336413	251.703387	-183.133981	1402.118391	276.894598	197.151923	1235.106987	124.834063	-248.329280	1144.249392	212.280075	140.429202	1091.760573	281.785145	-170.538506	1049.918929	408.465842
1033	10.32000	10.545235	935.107663	153.143148	-11.995687	1462.262912	307.219803	19.949683	1533.014035	455.258178	87.599455	937.833544	154.328734	-66.509020	932.381777	151.957593	85.087511	536.528750	339.750000	-137.595955	512.985596	231.723072	77.431223	146.635952	237.315306	-186.749153	248.755578	-75.507788	77.081986	98.315649	199.943242	-184.419414	242.782035	-130.232770	69.804549	96.042715	425.743762	-201.802774	82.332054	-15.355391	149.708423	1460.375806	252.378797	-181.541186	1403.453896	276.055006	197.751304	1232.929628	129.158765	-247.395698	1146.556347	209.948921	138.890451	1093.743060	287.622615	-170.916727	1050.393776	404.791468
1034	10.33000	11.593092	935.674606	152.954393	-10.358152	1462.854348	307.147716	21.270545	1533.805298	455.174873	88.617132	938.403631	154.288994	-65.430948	932.945580	151.619792	84.606818	536.830084	336.135148	-136.376710	514.418894	233.568114	77.882268	143.269971	236.878069	-186.120554	251.322492	-72.897116	77.685971	93.918685	199.580833	-183.737954	245.533182	-127.405389	70.984941	94.524858	429.145436	-202.023277	85.349776	-13.595962	151.637527	1460.415200	253.054206	-179.948390	1404.789400	275.215415	198.350685	1230.752269	133.483467	-246.462115	1148.863303	207.617768	137.351699	1095.725547	293.460085	-171.294948	1050.868622	401.117094
1035	10.34000	10.426760	935.949836	155.969970	-12.059524	1463.657749	310.030181	18.629431	1534.802163	458.160173	87.533820	938.741304	157.352983	-66.680298	933.158368	154.586959	82.125746	535.562092	330.494694	-135.993010	515.419671	240.417604	74.476930	141.348038	230.154137	-185.809300	250.460400	-59.310014	73.998305	92.360605	192.786301	-183.588509	243.938239	-113.059080	67.374281	91.266400	420.533306	-201.387716	87.406616	1.543255	150.657800	1460.266586	257.080036	-181.519242	1406.629250	276.464437	198.647392	1228.607429	141.442180	-249.726037	1152.300108	205.718968	133.667704	1099.444946	304.309178	-177.656416	1050.792306	397.249894
